<?xml version="1.0" standalone="no"?><!DOCTYPE svg PUBLIC "-//W3C//DTD SVG 1.1//EN" "http://www.w3.org/Graphics/SVG/1.1/DTD/svg11.dtd"><svg t="1755606756423" class="icon" viewBox="0 0 1024 1024" version="1.1" xmlns="http://www.w3.org/2000/svg" p-id="8298" xmlns:xlink="http://www.w3.org/1999/xlink" width="200" height="200"><path d="M944.44 329.333333A470.786667 470.786667 0 1 0 981.333333 512a467.68 467.68 0 0 0-36.893333-182.666667z m-51.473333-9.333333H450.413333L582.533333 91.166667c135.88 22.693333 250.22 109.84 310.433334 228.833333z m-208.533334 192L598.22 661.333333H425.78L339.566667 512l86.213333-149.333333h172.44zM512 85.333333q12.2 0 24.233333 0.666667l-221.333333 383.333333-132-228.633333C261.253333 145.873333 379.686667 85.333333 512 85.333333zM155.28 278.146667L296.453333 522.666667l80.06 138.666666H112.306667a426.26 426.26 0 0 1 42.973333-383.186666zM131.033333 704h442.553334L441.466667 932.833333c-135.88-22.693333-250.22-109.84-310.433334-228.833333zM512 938.666667q-12.2 0-24.233333-0.666667l221.3-383.333333 132 228.666666c-78.32 94.793333-196.753333 155.333333-329.066667 155.333334z m356.72-192.813334L647.486667 362.666667h264.206666a426.26 426.26 0 0 1-42.973333 383.186666z" fill="#ffffff" p-id="8299"></path></svg>